<?xml version="1.0" encoding="utf-8"?>
<!-- Generator: Adobe Illustrator 26.1.0, SVG Export Plug-In . SVG Version: 6.00 Build 0)  -->
<svg version="1.1" id="Camada_1" xmlns="http://www.w3.org/2000/svg" xmlns:xlink="http://www.w3.org/1999/xlink" x="0px" y="0px"
	 viewBox="0 0 16 16" style="enable-background:new 0 0 16 16;" xml:space="preserve">
<style type="text/css">
	.st0{fill:#727272;}
</style>
<path class="st0" d="M8,0c0.1,0,0.3,0,0.4,0.1l5.9,2.5c0.7,0.3,1.2,1,1.2,1.8c0,3.1-1.3,8.8-6.7,11.4c-0.5,0.2-1.1,0.2-1.7,0
	C1.8,13.1,0.5,7.5,0.5,4.4c0-0.8,0.5-1.5,1.2-1.8l5.9-2.5C7.7,0,7.9,0,8,0z M8,2.1v11.8c4.3-2.1,5.5-6.7,5.5-9.5L8,2.1z"/>
</svg>
