<?xml version="1.0" encoding="utf-8"?>
<!-- Generator: Adobe Illustrator 26.1.0, SVG Export Plug-In . SVG Version: 6.00 Build 0)  -->
<svg version="1.1" id="Camada_1" xmlns="http://www.w3.org/2000/svg" xmlns:xlink="http://www.w3.org/1999/xlink" x="0px" y="0px"
	 viewBox="0 0 15 14" style="enable-background:new 0 0 15 14;" xml:space="preserve">
<style type="text/css">
	.st0{fill:#727272;}
</style>
<path class="st0" d="M10.8,0C9.5,0,8.3,0.7,7.5,1.8C7.1,1.2,6.6,0.8,6,0.5C5.5,0.2,4.8,0,4.2,0C1.9,0,0,2,0,4.4C0,5.3,0.1,6.2,0.4,7
	c1.2,3.9,4.8,6.3,6.6,6.9C7.3,14,7.7,14,8,13.9c1.8-0.6,5.5-3,6.6-6.9C14.9,6.2,15,5.3,15,4.4C15,2,13.1,0,10.8,0z"/>
</svg>
